<svg width="38" height="20" viewBox="0 0 38 20" fill="none" xmlns="http://www.w3.org/2000/svg">
<mask id="mask0_5_26" style="mask-type:luminance" maskUnits="userSpaceOnUse" x="24" y="0" width="14" height="1">
<path d="M24.1558 0H38V0.842542H24.1558V0Z" fill="white"/>
</mask>
<g mask="url(#mask0_5_26)">
<path d="M37.7415 0.777525H24.4148C24.2723 0.777525 24.1564 0.603184 24.1564 0.388011C24.1564 0.173487 24.2723 -0.000854492 24.4148 -0.000854492H37.7415C37.8844 -0.000854492 37.9998 0.173487 37.9998 0.388011C37.9998 0.603184 37.8844 0.777525 37.7415 0.777525Z" fill="#952323"/>
</g>
<mask id="mask1_5_26" style="mask-type:luminance" maskUnits="userSpaceOnUse" x="0" y="4" width="14" height="2">
<path d="M0 4.41235H13.9372V5.40785H0V4.41235Z" fill="white"/>
</mask>
<g mask="url(#mask1_5_26)">
<path d="M13.5851 5.30288H0.258336C0.115821 5.30288 0 5.12918 0 4.91401C0 4.69949 0.115821 4.52515 0.258336 4.52515H13.5851C13.7276 4.52515 13.8434 4.69949 13.8434 4.91401C13.8434 5.12918 13.7276 5.30288 13.5851 5.30288Z" fill="#952323"/>
</g>
<path d="M37.5897 1.12378H24.5678C24.5678 2.93654 27.2648 5.52315 30.6714 5.71758V6.35726C30.6202 6.41106 30.5732 6.47522 30.5328 6.54651L20.71 7.92375L21.4992 11.2874L30.5177 7.91208C30.6486 8.16095 30.851 8.32104 31.0787 8.32104C31.474 8.32104 31.7947 7.83884 31.7947 7.24388C31.7947 6.8764 31.6725 6.55235 31.486 6.35726V5.71758C34.8918 5.52315 37.5897 2.93654 37.5897 1.12378Z" fill="#952323"/>
<path d="M18.0065 8.18559L7.46723 11.0723C7.42675 11.0003 7.38025 10.9368 7.32902 10.8837V10.2433C10.7352 10.0496 13.4326 7.4623 13.4326 5.64954H0.410767C0.410767 7.4623 3.10823 10.0496 6.5144 10.2433V10.8837C6.32796 11.0775 6.20525 11.4015 6.20525 11.769C6.20525 12.3646 6.52602 12.8474 6.92171 12.8474C7.17272 12.8474 7.39317 12.6524 7.52105 12.3588L17.185 11.5499L18.0065 8.18559Z" fill="#952323"/>
<mask id="mask2_5_26" style="mask-type:luminance" maskUnits="userSpaceOnUse" x="13" y="6" width="13" height="14">
<path d="M13.6165 6.59839H25.0883V20H13.6165V6.59839Z" fill="white"/>
</mask>
<g mask="url(#mask2_5_26)">
<path d="M19.3911 10.723C19.1117 10.723 18.8852 10.3814 18.8852 9.96146C18.8852 9.54083 19.1117 9.19993 19.3911 9.19993C19.6705 9.19993 19.8966 9.54083 19.8966 9.96146C19.8966 10.3814 19.6705 10.723 19.3911 10.723ZM23.6541 16.6538C22.957 16.6538 22.3529 15.9267 22.1996 14.9688L20.4184 7.87584C20.2811 7.13051 19.8647 6.66647 19.3932 6.66711C18.9218 6.66711 18.5059 7.13051 18.3681 7.80908L16.5825 14.9026C16.4293 15.9267 15.8252 16.6538 15.1277 16.6538C14.3445 16.6538 13.709 17.6098 13.709 18.7894V20.0162H25.0728V18.7894C25.0728 17.6098 24.4377 16.6538 23.6541 16.6538Z" fill="#952323"/>
</g>
</svg>
