<svg width="180" height="53" viewBox="0 0 180 53" fill="none" xmlns="http://www.w3.org/2000/svg">
<mask id="mask0_3_116" style="mask-type:luminance" maskUnits="userSpaceOnUse" x="114" y="0" width="66" height="4">
<path d="M114.422 0.911133H180V3.08084H114.422V0.911133Z" fill="white"/>
</mask>
<g mask="url(#mask0_3_116)">
<path d="M178.776 2.91351H115.65C114.975 2.91351 114.426 2.46454 114.426 1.91043C114.426 1.35799 114.975 0.909027 115.65 0.909027H178.776C179.454 0.909027 180 1.35799 180 1.91043C180 2.46454 179.454 2.91351 178.776 2.91351Z" fill="#FFEEEE"/>
</g>
<mask id="mask1_3_116" style="mask-type:luminance" maskUnits="userSpaceOnUse" x="0" y="12" width="67" height="3">
<path d="M0 12.2737H66.0186V14.8373H0V12.2737Z" fill="white"/>
</mask>
<g mask="url(#mask1_3_116)">
<path d="M64.3503 14.567H1.2237C0.548625 14.567 0 14.1197 0 13.5656C0 13.0131 0.548625 12.5641 1.2237 12.5641H64.3503C65.0253 12.5641 65.574 13.0131 65.574 13.5656C65.574 14.1197 65.0253 14.567 64.3503 14.567Z" fill="#FFEEEE"/>
</g>
<path d="M178.056 3.80518H116.374C116.374 8.47339 129.149 15.1344 145.286 15.6351V17.2824C145.043 17.4209 144.821 17.5862 144.629 17.7698L98.0999 21.3164L101.838 29.9786L144.558 21.2864C145.178 21.9273 146.136 22.3395 147.215 22.3395C149.087 22.3395 150.607 21.0978 150.607 19.5656C150.607 18.6193 150.028 17.7848 149.145 17.2824V15.6351C165.277 15.1344 178.056 8.47339 178.056 3.80518Z" fill="#FFEEEE"/>
<path d="M85.2939 21.9907L35.371 29.4244C35.1793 29.2392 34.959 29.0756 34.7163 28.9387V27.2898C50.8508 26.7907 63.6283 20.1281 63.6283 15.4598H1.94568C1.94568 20.1281 14.7231 26.7907 30.8576 27.2898V28.9387C29.9745 29.4378 29.3932 30.2723 29.3932 31.2186C29.3932 32.7524 30.9127 33.9958 32.787 33.9958C33.976 33.9958 35.0202 33.4935 35.626 32.7374L81.4025 30.6545L85.2939 21.9907Z" fill="#FFEEEE"/>
<mask id="mask2_3_116" style="mask-type:luminance" maskUnits="userSpaceOnUse" x="64" y="17" width="55" height="36">
<path d="M64.4991 17.9033H118.84V52.415H64.4991V17.9033Z" fill="white"/>
</mask>
<g mask="url(#mask2_3_116)">
<path d="M91.8529 28.525C90.5293 28.525 89.4565 27.6455 89.4565 26.564C89.4565 25.4808 90.5293 24.6029 91.8529 24.6029C93.1765 24.6029 94.2473 25.4808 94.2473 26.564C94.2473 27.6455 93.1765 28.525 91.8529 28.525ZM112.046 43.7981C108.744 43.7981 105.883 41.9255 105.157 39.4587L96.7192 21.1931C96.0686 19.2737 94.0964 18.0787 91.8631 18.0804C89.6299 18.0804 87.6597 19.2737 87.0071 21.0212L78.5493 39.2885C77.8232 41.9255 74.9618 43.7981 71.6578 43.7981C67.948 43.7981 64.9377 46.2599 64.9377 49.2975V52.4569H118.766V49.2975C118.766 46.2599 115.758 43.7981 112.046 43.7981Z" fill="#FFEEEE"/>
</g>
</svg>
