<svg width="20" height="14" viewBox="0 0 20 14" fill="none" xmlns="http://www.w3.org/2000/svg">
<path d="M0 13.7344V12.2887H9V4.21067C8.56667 4.10224 8.19167 3.93357 7.875 3.70467C7.55833 3.47576 7.325 3.20469 7.175 2.89145H4L7 7.95148C7 8.55386 6.65833 9.06589 5.975 9.48756C5.29167 9.90923 4.46667 10.1201 3.5 10.1201C2.53333 10.1201 1.70833 9.90923 1.025 9.48756C0.341667 9.06589 0 8.55386 0 7.95148L3 2.89145H1V1.44572H7.175C7.375 1.02405 7.73333 0.677683 8.25 0.40661C8.76667 0.135537 9.35 0 10 0C10.65 0 11.2333 0.135537 11.75 0.40661C12.2667 0.677683 12.625 1.02405 12.825 1.44572H19V2.89145H17L20 7.95148C20 8.55386 19.6583 9.06589 18.975 9.48756C18.2917 9.90923 17.4667 10.1201 16.5 10.1201C15.5333 10.1201 14.7083 9.90923 14.025 9.48756C13.3417 9.06589 13 8.55386 13 7.95148L16 2.89145H12.825C12.675 3.20469 12.4417 3.47576 12.125 3.70467C11.8083 3.93357 11.4333 4.10224 11 4.21067V12.2887H20V13.7344H0ZM14.625 7.95148H18.375L16.5 4.80703L14.625 7.95148ZM1.625 7.95148H5.375L3.5 4.80703L1.625 7.95148ZM10 2.89145C10.2833 2.89145 10.5208 2.82217 10.7125 2.68362C10.9042 2.54508 11 2.3734 11 2.16859C11 1.96377 10.9042 1.79209 10.7125 1.65355C10.5208 1.515 10.2833 1.44572 10 1.44572C9.71667 1.44572 9.47917 1.515 9.2875 1.65355C9.09583 1.79209 9 1.96377 9 2.16859C9 2.3734 9.09583 2.54508 9.2875 2.68362C9.47917 2.82217 9.71667 2.89145 10 2.89145Z" fill="#952323"/>
</svg>
